<?xml version="1.0" encoding="utf-8"?>
<!-- Generator: Adobe Illustrator 23.0.6, SVG Export Plug-In . SVG Version: 6.00 Build 0)  -->
<svg version="1.1" id="Group_116" xmlns="http://www.w3.org/2000/svg" xmlns:xlink="http://www.w3.org/1999/xlink" x="0px" y="0px"
	 viewBox="0 0 46 46" style="enable-background:new 0 0 46 46;" xml:space="preserve">
<style type="text/css">
	.dp0{fill:#4B8AA9;}
</style>
<path id="Path_48" class="dp0" d="M23,0c-0.3,0-0.7,0-1,0c0.1,0.1,0.1,0.3,0.1,0.4v32.8c0.1,0.5-0.3,0.9-0.8,1c-0.1,0-0.1,0-0.2,0
	h-0.6c-0.6,0-1-0.3-1-0.9v-1.3c-0.3,0.7-1.5,2.3-4.4,2.3c-3.3,0-5.2-2.1-5.2-5.6V18c0-3.6,2-5.7,5.4-5.7c2.8,0,3.9,1.4,4.3,2V0.5
	c0-0.1,0-0.1,0-0.2C6.9,2.2-1.7,14,0.3,26.5C2,37.7,11.7,46,23,46c0.3,0,0.6,0,0.9,0V13.5c-0.1-0.5,0.3-0.9,0.8-1c0.1,0,0.1,0,0.2,0
	h0.6c0.6,0,1,0.3,1,0.9v1.3c0.3-0.7,1.5-2.3,4.4-2.3c3.3,0,5.2,2.1,5.2,5.6v10.8c0,3.6-2,5.7-5.4,5.7c-2.8,0-3.9-1.4-4.3-2v13.3
	c12.6-2,21.1-13.7,19.2-26.3C43.9,8.3,34.3,0,23,0z"/>
<path id="Path_49" class="dp0" d="M30.2,32.1c2.2,0,3.4-1.2,3.4-3.5V18.1c0-2.2-1.2-3.4-3.4-3.4c-2,0-3.7,1.2-3.7,3.4v10.7
	C26.5,31,28.2,32.1,30.2,32.1z"/>
<path id="Path_50" class="dp0" d="M15.8,14.6c-2.2,0-3.4,1.2-3.4,3.5v10.5c0,2.2,1.2,3.4,3.4,3.4c2,0,3.7-1.2,3.7-3.4V18
	C19.5,15.8,17.8,14.6,15.8,14.6z"/>
</svg>
