<svg xmlns="http://www.w3.org/2000/svg" width="272" height="176.893" viewBox="0 0 272 176.893">
  <g id="Group_66" data-name="Group 66" transform="translate(-344 -3025.854)">
    <rect id="Rectangle_12" data-name="Rectangle 12" width="1.198" height="3.552" transform="translate(424.187 3080.448)" fill="#ffd16e"/>
    <rect id="Rectangle_13" data-name="Rectangle 13" width="1.19" height="3.552" transform="translate(425.788 3080.448)" fill="#ffd16e"/>
    <path id="Path_123" data-name="Path 123" d="M2246.7,863.241c-3.731,1.772-9.745,13.264,1.793,26.8,5.751,6.748-4.6,5.822-6.6,13.653a12.324,12.324,0,0,0,1.772,10.36s51,1.381,53.866,0c5.328-.3,12.752-28.049-2.552-30.509s-13.214-2.985-15.244-8.807-22.653-12.6-22.653-12.6Z" transform="translate(-1736.288 2206.184)" fill="#d47c1d"/>
    <path id="Path_124" data-name="Path 124" d="M2394.442,1165.594c0,1.747-3.27,3.164-7.306,3.164s-7.306-1.416-7.306-3.164,3.27-3.164,7.306-3.164S2394.442,1163.847,2394.442,1165.594Z" transform="translate(-1857.14 1943.889)" fill="#8f6db2"/>
    <path id="Path_125" data-name="Path 125" d="M2298.161,919.509a2.609,2.609,0,0,0,.407-.205c.047-.029.095-.064.142-.1.1-.071.2-.151.306-.237.071-.059.142-.127.211-.19s.141-.143.21-.218c.143-.152.285-.315.425-.5.041-.049.08-.1.119-.152.1-.126.195-.264.292-.407-.471-3.766-1.519-8.1-4.064-11.209-5.175-6.314-16.484,3.592-20.729-3.592-1.669-2.826-7.178-19.047-14.91-20.9,0,0-4.752-8.931-10.985-13.267l-2.819.3a5.709,5.709,0,0,0-1.686,1.345,3.046,3.046,0,0,1-.038.38c-1.415,7.951,4.272,24.03,6.023,26.775,3.067,4.809,6.82,8.4-.291,10.214a27.356,27.356,0,0,0-9.213,4.326v.013a12.372,12.372,0,0,0,1.936,7.44c0,.009.012.016.017.024.039.058.075.11.1.151l.023.03c.021.031.044.059.057.078a.284.284,0,0,0,.028.036s51,1.381,53.866,0a1.767,1.767,0,0,0,.445-.094C2298.079,919.541,2298.119,919.527,2298.161,919.509Z" transform="translate(-1736.354 2200.585)" fill="#9f5d16"/>
    <path id="Path_126" data-name="Path 126" d="M2354.165,1048.894a5.267,5.267,0,0,1-1.941-.368,5.328,5.328,0,0,1-3.019-6.9c1.051-2.854-2.039-13.992-4.161-16.579a5.328,5.328,0,0,1,5.07-9.342c6.708,3.079,11.8,22.7,9.015,29.815A5.333,5.333,0,0,1,2354.165,1048.894Z" transform="translate(-1824.604 2072.467)" fill="#ffc1a9"/>
    <path id="Path_127" data-name="Path 127" d="M2350.016,1015.656a5.328,5.328,0,0,0-5.07,9.345c.965,1.179,2.13,4.129,3.012,7.262,3.411-2.9,5.116-8.709,5.569-13.386A9.433,9.433,0,0,0,2350.016,1015.656Z" transform="translate(-1824.508 2072.511)" fill="#f49e8e"/>
    <path id="Path_128" data-name="Path 128" d="M2290.638,915.579c.058,5.7,3.18,25.378,10.728,22.642s9.1-17.98,7.473-21.163S2290.565,908.4,2290.638,915.579Z" transform="translate(-1779.235 2162.582)" fill="#ffc1a9"/>
    <path id="Path_129" data-name="Path 129" d="M2277.363,816.8c-10.791,7.958,2.861,19.983,18.572,21.778,16.579,1.892,11.321.938,11.715-.411C2310.837,827.285,2294.926,803.861,2277.363,816.8Z" transform="translate(-1764.269 2249.091)" fill="#d47c1d"/>
    <path id="Path_130" data-name="Path 130" d="M2412.317,972.741c-.279,2.244-1.406,3.951-2.52,3.812s-1.788-2.068-1.51-4.31,1.407-3.953,2.519-3.816S2412.6,970.5,2412.317,972.741Z" transform="translate(-1881.94 2113.346)" fill="#ffc1a9"/>
    <path id="Path_131" data-name="Path 131" d="M1965.51,1190.749c-2.516,1.234-14.1.592-17.338,4.342s-14.511,37.684-33.437,36.7,0,5.92,0,5.92,23.466,11.571,32.853,7.56.583,34.215.583,34.215h55.168s24.318-63.47.3-85.282c-6.4-5.814-20.963-2.96-22.541-2.96s-1.942,4-8.063,3.521S1965.51,1190.749,1965.51,1190.749Z" transform="translate(-1443.558 1919.331)" fill="#8f6db2"/>
    <path id="Path_132" data-name="Path 132" d="M2368.706,1176.99c-.695-1.02-3.064,2.1-2.45,3.49.862,1.958,6.2,5.237,7.649,4.235,1.535-1.063,1.7-3.973.483-4.011C2372.531,1180.645,2370.377,1179.442,2368.706,1176.99Z" transform="translate(-1845.196 1931.347)" fill="#450c7f"/>
    <path id="Path_133" data-name="Path 133" d="M2440.408,1176.99c.695-1.02,3.065,2.1,2.449,3.49-.862,1.958-6.2,5.237-7.648,4.235-1.535-1.063-1.7-3.973-.484-4.011C2436.583,1180.645,2438.742,1179.442,2440.408,1176.99Z" transform="translate(-1904.386 1931.347)" fill="#450c7f"/>
    <path id="Path_134" data-name="Path 134" d="M2428.9,1249.032a1.181,1.181,0,0,1-1.1-.759c-1.239-3.183-1.761-12.17-2.141-21.411-.059-1.416-.115-2.756-.146-2.994a1.183,1.183,0,0,1,2.338-.333c.048.329.086,1.231.169,3.24.214,5.207.717,17.4,1.981,20.65a1.182,1.182,0,0,1-.674,1.531A1.164,1.164,0,0,1,2428.9,1249.032Z" transform="translate(-1897.034 1891.335)" fill="#450c7f"/>
    <path id="Path_135" data-name="Path 135" d="M2402.25,1278.877a.986.986,0,1,1,.289.7A.987.987,0,0,1,2402.25,1278.877Z" transform="translate(-1876.722 1843.041)" fill="#450c7f"/>
    <path id="Path_136" data-name="Path 136" d="M2404.77,1331.107a.987.987,0,1,1,.987.987A.987.987,0,0,1,2404.77,1331.107Z" transform="translate(-1878.923 1797.421)" fill="#450c7f"/>
    <path id="Path_137" data-name="Path 137" d="M2410.05,1382.2a.985.985,0,1,1,.288.7A.985.985,0,0,1,2410.05,1382.2Z" transform="translate(-1883.535 1752.788)" fill="#450c7f"/>
    <path id="Path_138" data-name="Path 138" d="M2186.865,1195.507c-2.354-2.137-5.808-3.1-9.316-3.468,2.9,13.629-2.254,43.094-14.271,44.1-15.02,1.252-19.77-3.069-19.77-19.561-5.326,13.079-6.364,23.919-18.477,25.39-3.652.444-6.522.9-8.931,3.923,5.568,1.481,11.151,2.2,14.712.682,9.385-4.011.583,34.216.583,34.216h11.76l44.359-2.635C2191.767,1265.957,2207.966,1214.666,2186.865,1195.507Z" transform="translate(-1626.786 1918.026)" fill="#450c7f"/>
    <path id="Path_139" data-name="Path 139" d="M1645.3,833.182a6.515,6.515,0,0,1-6.089-4.2c-4.607-12.149,5.621-28.748,14.687-34.843a6.512,6.512,0,1,1,7.268,10.808c-5.519,3.709-11.618,14.573-9.779,19.417a6.516,6.516,0,0,1-6.087,8.822Z" transform="translate(-1209.251 2266.543)" fill="#ffc1a9"/>
    <path id="Path_140" data-name="Path 140" d="M1709.813,795.905a6.513,6.513,0,0,0-9.037-1.772,36.4,36.4,0,0,0-9.036,9.3c.858,3.73,2.743,6.581,6.291,7.129A8.469,8.469,0,0,0,1703.82,809a20.127,20.127,0,0,1,4.224-4.061A6.514,6.514,0,0,0,1709.813,795.905Z" transform="translate(-1256.131 2266.543)" fill="#f49e8e"/>
    <path id="Path_141" data-name="Path 141" d="M1715.7,651.9c-2.552,4.49-7.86,26.541,2.658,28.685s23.579-23.684,23.579-23.684-21.744-15.62-23.99-10.31Z" transform="translate(-1273.899 2395.405)" fill="#ffc1a9"/>
    <path id="Path_142" data-name="Path 142" d="M1699.47,556.5c.418-.791,1.772-11.444,8.287-12.333s11.181,3.518,14.374,8.408c4.374,6.708,18.285,2.64,20.85-4.364s-.4-9.569-4.143-8.682c.591-2.86.1-13.316-11.741-9.864-2.169-3.06-20.915-7.894-22,9.365-16.045.024-7.458,22.594-7.458,22.594Z" transform="translate(-1259.28 2499.229)"/>
    <path id="Path_143" data-name="Path 143" d="M1751.977,543.308c-.139-3.263-2.4-4.408-5.087-3.773.591-2.86.1-13.316-11.741-9.864-1.9-2.677-16.472-6.707-20.825,3.871a.185.185,0,0,1-.006.057h-.017a17.433,17.433,0,0,0-1.151,5.442c-4.683.008-7.26,1.944-8.572,4.672a37.969,37.969,0,0,0,2.278,12.481l1.833-5.133c.419-.79,1.772-11.443,8.287-12.33s11.186,3.517,14.375,8.407C1735.614,553.675,1748.918,549.98,1751.977,543.308Z" transform="translate(-1267.337 2499.219)" fill="#646363"/>
    <path id="Path_144" data-name="Path 144" d="M1716.912,695.665c-.152,2.844-1.235,5.1-2.416,5.033s-2.017-2.418-1.867-5.262,1.235-5.1,2.417-5.034S1717.063,692.819,1716.912,695.665Z" transform="translate(-1274.362 2356.181)" fill="#ffc1a9"/>
    <path id="Path_145" data-name="Path 145" d="M1228.316,954.775c-6-3.65-53.609,17.981-53.865,61.857-.243,41.73,16.376,57.709,37.686,57.709h49.721l-2.761-41.731,43.013,18.943,3.268-14.569s-19.636-17.541-24.552-27.9-11.722-46.274-29.33-48.091C1246.427,960.467,1242.424,963.358,1228.316,954.775Z" transform="translate(-804.307 2125.611)" fill="#61789b"/>
    <path id="Path_146" data-name="Path 146" d="M1815.523,1382.411c-9.131,1.554-29.642-5.585-25.46-7.34,4.893-2.06,4.37-13.733-.773-15.082l-11.11-.1s-9.365,22.56-9.187,23.012c.127.3,6.129,8.507,10.063,13.867l-.659-9.957,38.726,17.053c1.493-.324,3.195-.693,4.954-1.073l2.6-11.615S1820.5,1387.444,1815.523,1382.411Z" transform="translate(-1323.605 1771.419)" fill="#2b4162"/>
    <path id="Path_147" data-name="Path 147" d="M1438.518,1314.224c.295,7.087-1.519,44.583,8.707,42.341s17.785-25.377,26.627-18.566-4.259,44.431-7.529,46.409-38.582,3.84-23.38-.7a42.716,42.716,0,0,0,17.122-20.534l-.633-4.7-1.1-1.319-8.635,3.265s-12.251,1.412-15.963-5.151-2.612-28.045-2.612-28.045l1.483-13S1438.155,1305.475,1438.518,1314.224Z" transform="translate(-1028.361 1814.702)" fill="#2b4162"/>
    <path id="Path_148" data-name="Path 148" d="M1238.926,1403.319c6.454-5.706,30.315-27.89-11.434-8.677-47.557,21.887-50.54-53.813-50.83-63.546l-.282-.076a58.288,58.288,0,0,0-1.927,14.587c-.243,41.73,16.376,57.709,37.686,57.709Z" transform="translate(-804.307 1796.635)" fill="#2b4162"/>
    <path id="Path_149" data-name="Path 149" d="M1572.477,967.245a16.315,16.315,0,0,0,5.838,1.118,14.012,14.012,0,0,0,9.73-3.854,4.138,4.138,0,0,0,1.249-3.606c-2.727.051-5.552.57-10.3-.886a7.9,7.9,0,0,1-3.544-.516,7.41,7.41,0,0,1-3.307-2.384c-1.291-.673-2.676-1.453-4.184-2.37-.791-.481-2.311-.518-4.343-.127a4.106,4.106,0,0,0-.3,1.877C1563.676,961.03,1567.275,965.247,1572.477,967.245Z" transform="translate(-1143.948 2125.632)" fill="#2b4162"/>
    <path id="Path_150" data-name="Path 150" d="M1208.05,1070.845c-9.678,0-17.757-3.189-24.011-9.48-9.6-9.656-14.4-26.083-14.267-48.828.2-34.188,28.128-52.428,36.684-57.2,8.15-4.556,15.585-6.676,18.081-5.152,10.784,6.561,15.593,6.328,19.464,6.124a22.56,22.56,0,0,1,3.473.009.592.592,0,1,1-.127,1.177,21.146,21.146,0,0,0-3.29,0c-4.03.2-9.045.456-20.14-6.3-1.791-1.086-8.606.547-16.889,5.173-8.414,4.7-35.881,22.633-36.076,56.181-.127,22.417,4.556,38.562,13.921,47.985,6.024,6.06,13.82,9.132,23.171,9.132a.592.592,0,0,1,0,1.183Z" transform="translate(-800.219 2129.704)"/>
    <path id="Path_151" data-name="Path 151" d="M1605.749,941.115a16.281,16.281,0,0,1-5.838-1.117c-5.2-2-8.8-6.215-9.165-10.743a4.144,4.144,0,0,1,8.26-.666c.088,1.106,1.564,2.784,3.876,3.67,1.244.478,4.406,1.335,6.906-1.026a4.145,4.145,0,0,1,5.7,6.025A14.015,14.015,0,0,1,1605.749,941.115Z" transform="translate(-1167.907 2151.465)" fill="#61789b"/>
    <path id="Path_152" data-name="Path 152" d="M1601.656,937.7a16.851,16.851,0,0,1-6.051-1.155c-5.414-2.081-9.159-6.495-9.543-11.248a4.734,4.734,0,0,1,4.34-5.1.592.592,0,1,1,.095,1.18,3.555,3.555,0,0,0-3.254,3.824c.347,4.3,3.8,8.321,8.788,10.238a15.664,15.664,0,0,0,5.625,1.078,13.341,13.341,0,0,0,9.323-3.692.592.592,0,0,1,.814.861A14.507,14.507,0,0,1,1601.656,937.7Z" transform="translate(-1163.814 2155.47)"/>
    <path id="Path_153" data-name="Path 153" d="M1429.722,1412.718a17.935,17.935,0,0,1-2.439-.167.592.592,0,0,1-.508-.666.58.58,0,0,1,.666-.506c16.029,2.151,25.4-19.2,26.29-21.332l-1.3-5.434a27.839,27.839,0,0,1-15.932,3.484,9.989,9.989,0,0,1-7.35-3.679c-7.087-8.469-4.584-29.19-3.383-39.149.188-1.564.342-2.828.41-3.685a.592.592,0,0,1,1.181.1c-.07.867-.224,2.151-.415,3.732-1.089,9.026-3.641,30.17,3.116,38.246a8.843,8.843,0,0,0,6.51,3.256c9.946.574,15.833-3.69,15.89-3.733a.593.593,0,0,1,.929.339l1.544,6.437a.578.578,0,0,1-.025.354C1454.808,1390.547,1445.9,1412.717,1429.722,1412.718Z" transform="translate(-1022.568 1787.883)"/>
    <path id="Path_154" data-name="Path 154" d="M2238.08,1823.238a2.674,2.674,0,0,0,2.676-2.674v-7.029a2.675,2.675,0,1,0-5.351,0v7.035A2.674,2.674,0,0,0,2238.08,1823.238Z" transform="translate(-1730.992 1377.521)" fill="#b64254"/>
    <path id="Path_155" data-name="Path 155" d="M2261.45,1608.157c.9,1.687,2.356,4.451,3.25,6.142s2.456,1.747,3.473.126,2.681-4.266,3.7-5.886.285-3-1.625-3.074l-6.943-.253C2261.389,1605.142,2260.559,1606.465,2261.45,1608.157Z" transform="translate(-1753.429 1557.146)" fill="#520a15"/>
    <path id="Path_156" data-name="Path 156" d="M2181.251,1823.247a2.674,2.674,0,0,0,2.677-2.674v-7.029a2.674,2.674,0,1,0-5.348,0v7.035A2.672,2.672,0,0,0,2181.251,1823.247Z" transform="translate(-1681.359 1377.513)" fill="#b64254"/>
    <path id="Path_157" data-name="Path 157" d="M2041.9,1823.247a2.673,2.673,0,0,0,2.674-2.674v-7.029a2.674,2.674,0,1,0-5.348,0v7.035A2.673,2.673,0,0,0,2041.9,1823.247Z" transform="translate(-1559.64 1377.513)" fill="#b64254"/>
    <path id="Path_158" data-name="Path 158" d="M1946.92,1560c19.139-5.747,37.494,11.7,39.486,12.639a7.551,7.551,0,0,0,4.419.339v12.931s-1.193-1.02-4.905,2.531-10.356,9.789-28.082,9.789c-16.337,0-22.349-8.626-22.349-19.259S1939.825,1562.13,1946.92,1560Z" transform="translate(-1469.033 1597.643)" fill="#b64254"/>
    <path id="Path_159" data-name="Path 159" d="M1967.14,1575.531c0-6.175,1.462-10.852,4.075-14.106a15.908,15.908,0,0,1,3.35-1.433c19.139-5.747,37.494,11.7,39.486,12.639a7.55,7.55,0,0,0,4.419.339v11.214c-.282.243-.581.506-.9.815-.486.463-1.022.972-1.624,1.509a15.2,15.2,0,0,0-2.378,1.922h-.007c-4.315,3.128-11.332,6.354-24.07,6.354C1973.153,1594.8,1967.14,1586.166,1967.14,1575.531Z" transform="translate(-1496.678 1597.652)" fill="#a41329"/>
    <path id="Path_160" data-name="Path 160" d="M1987.728,1815.87v9.07a2.674,2.674,0,0,1-5.348,0v-9.07Z" transform="translate(-1509.989 1373.146)" fill="#b64254"/>
    <path id="Path_161" data-name="Path 161" d="M2203.634,1627.616c-1.3,1.4-3.439,3.683-4.741,5.081s-.85,2.891,1.013,3.323l6.769,1.567c1.861.43,2.931-.712,2.372-2.54s-1.469-4.818-2.025-6.644S2204.941,1626.22,2203.634,1627.616Z" transform="translate(-1698.453 1538.32)" fill="#b64254"/>
    <path id="Path_162" data-name="Path 162" d="M2200.593,1616.578c-1.3,1.392-3.44,3.683-4.741,5.081s-.851,2.891,1.012,3.322l6.768,1.568c1.864.43,2.932-.713,2.373-2.539s-1.469-4.819-2.025-6.648S2201.9,1615.183,2200.593,1616.578Z" transform="translate(-1695.795 1547.962)" fill="#520a15"/>
    <path id="Path_163" data-name="Path 163" d="M2306.407,1686.541a.886.886,0,0,0,.886-.886v-1.519a.891.891,0,1,0-1.783,0v1.519A.893.893,0,0,0,2306.407,1686.541Z" transform="translate(-1792.225 1488.986)" fill="#520a15"/>
    <path id="Path_164" data-name="Path 164" d="M2343.68,1677.007c0,3.57,1.646,6.465,3.678,6.465s3.677-2.894,3.677-6.465-1.645-6.467-3.677-6.467S2343.68,1673.434,2343.68,1677.007Z" transform="translate(-1825.564 1500.083)" fill="#b64254"/>
    <path id="Path_165" data-name="Path 165" d="M2349.85,1677.007c0,3.57,1.645,6.465,3.678,6.465s3.677-2.894,3.677-6.465-1.645-6.467-3.677-6.467S2349.85,1673.434,2349.85,1677.007Z" transform="translate(-1830.954 1500.083)" fill="#edd0d4"/>
    <path id="Path_166" data-name="Path 166" d="M2391.09,1715.343c0-.507-.231-.913-.519-.913s-.521.41-.521.913.233.91.521.91S2391.09,1715.844,2391.09,1715.343Z" transform="translate(-1866.066 1461.748)" fill="#b64254"/>
    <path id="Path_167" data-name="Path 167" d="M2369.689,1715.343c0-.507-.232-.913-.521-.913s-.518.41-.518.913.232.91.518.91S2369.689,1715.844,2369.689,1715.343Z" transform="translate(-1847.374 1461.748)" fill="#b64254"/>
    <path id="Path_168" data-name="Path 168" d="M2051.751,1578.029l1.325-1.194c-3.847-4.272-12.715-4.333-17.276-1.392l.969,1.5C2040.673,1574.424,2048.509,1574.427,2051.751,1578.029Z" transform="translate(-1556.649 1584.923)" fill="#520a15"/>
    <path id="Path_169" data-name="Path 169" d="M1848.292,1238.2c11.489-3.3,18.312,14.524,12.512,17.212S1840.645,1240.4,1848.292,1238.2Z" transform="translate(-1390.956 1878.067)" fill="#9f5d16"/>
    <path id="Path_170" data-name="Path 170" d="M1813.048,1384.121a3.644,3.644,0,0,0,.478.039,4.357,4.357,0,0,0,4.487-4.237c.067-2.568.218-7.916,3.617-11.137a4.366,4.366,0,0,0-6.012-6.328c-6.008,5.709-6.244,14.077-6.328,17.229A4.361,4.361,0,0,0,1813.048,1384.121Z" transform="translate(-1358.803 1770.151)" fill="#f7cbba"/>
    <path id="Path_171" data-name="Path 171" d="M1844.508,1369.116a19.418,19.418,0,0,1-1.328-4.418,18.227,18.227,0,0,1,2.034-2.308,4.366,4.366,0,0,1,6.012,6.328,11.02,11.02,0,0,0-2.95,5.442A13.206,13.206,0,0,1,1844.508,1369.116Z" transform="translate(-1388.406 1770.211)" fill="#f29b8b"/>
    <path id="Path_172" data-name="Path 172" d="M1846.419,1283.872c2.362,5.555.486,11.643-2.761,13.044s-8.95-1.511-11.31-7.068-2.263-10.875,2.768-13.035C1842.462,1273.639,1844.058,1278.314,1846.419,1283.872Z" transform="translate(-1377.639 1844.881)" fill="#f7cbba"/>
    <path id="Path_173" data-name="Path 173" d="M2133.14,1703.991a1.182,1.182,0,0,1-.886-1.973l4.243-4.734a1.182,1.182,0,0,1,1.761,1.578l-4.242,4.736A1.181,1.181,0,0,1,2133.14,1703.991Z" transform="translate(-1640.63 1477.067)" fill="#f7cbba"/>
    <path id="Path_174" data-name="Path 174" d="M2111.479,1719.5c0-.575,11.357-5.271,12.075-2.152s-1.2,6.518-14.614,5.751C2108.938,1721.081,2111.479,1719.5,2111.479,1719.5Z" transform="translate(-1620.532 1460.126)" fill="#f7cbba"/>
    <path id="Path_175" data-name="Path 175" d="M1680.481,1496.89c-6.067,3.316-20.969,49.725-19.49,50.169,1.772,0,42.17,2.608,40.69-1.091s-6.4-41.176-6.4-41.176l-7.186-5.562Z" transform="translate(-1229.184 1651.757)" fill="#8f6db2"/>
    <path id="Path_176" data-name="Path 176" d="M1861.554,1547.518a.081.081,0,0,1-.027,0c-6.657-.6-14.4-2.255-18.995-7.514-2.512-2.879-2.578-6.454-2.582-10.085-.073-13.415-21.422-10.166-17.31,3.394,3.346,11.033,11.672,20.306,23.951,20.955a53.762,53.762,0,0,0,14.963-.833Z" transform="translate(-1370.006 1630.394)" fill="#8f6db2"/>
    <path id="Path_177" data-name="Path 177" d="M1855.125,1521.985a10.147,10.147,0,0,0-9.824,1.671,13.2,13.2,0,0,0,4.847.944,8.474,8.474,0,0,0,3.66-.733A2.358,2.358,0,0,0,1855.125,1521.985Z" transform="translate(-1390.257 1630.365)" fill="#450c7f"/>
    <path id="Path_178" data-name="Path 178" d="M1886.114,1719c-5.236-1.823-10.164-6.909-10.985-7.711-1.031,6.429,6.616,14.016,12.234,15.5C1886.975,1724.526,1886.547,1721.849,1886.114,1719Z" transform="translate(-1416.229 1464.49)" fill="#450c7f"/>
    <path id="Path_179" data-name="Path 179" d="M1805.655,1481.032a12.776,12.776,0,0,1-5.752-1.362,4.906,4.906,0,0,1-2.893-3.627,2.368,2.368,0,0,1,4.651-.862c.76.8,4.116,1.569,5.594.855a2.368,2.368,0,0,1,2.061,4.264A8.478,8.478,0,0,1,1805.655,1481.032Z" transform="translate(-1348.061 1672.311)" fill="#8f6db2"/>
    <path id="Path_180" data-name="Path 180" d="M1661,1547.068c1.256,0,21.871,1.307,33.284.759l-10.909-.285c-18.67-.486-7.4-36.226-1.852-50.326l-1.029-.316C1674.42,1500.214,1659.517,1546.624,1661,1547.068Z" transform="translate(-1229.191 1651.748)" fill="#450c7f"/>
    <path id="Path_181" data-name="Path 181" d="M1894.4,1716.275a43.322,43.322,0,0,1-4.4-.22,24.827,24.827,0,0,1-17.958-9.154.591.591,0,1,1,.9-.759,23.671,23.671,0,0,0,17.146,8.732,51.63,51.63,0,0,0,14.339-.741l.029-5.416a.462.462,0,0,1,0-.082.577.577,0,0,1,1.149.082v5.915a.592.592,0,0,1-.49.582A60.913,60.913,0,0,1,1894.4,1716.275Z" transform="translate(-1413.48 1469.193)" fill="#61789b"/>
    <path id="Path_182" data-name="Path 182" d="M1700.047,1268.831c1.725-4.318-.114-6.542-.016-15.693.046-4.116,6.834-4.875,9.167-8.293,5.7-8.365-3.863-13.177-10.409-10.609-7.467,2.926-7.125,15.187-7.767,16.469s-12.726,4.291-11.666,16.171C1680.318,1277.653,1696.809,1276.937,1700.047,1268.831Z" transform="translate(-1245.256 1881.775)" fill="#d47c1d"/>
    <path id="Path_183" data-name="Path 183" d="M1826.395,1341.212c.4,1.509,1.519,2.517,2.518,2.258s1.484-1.7,1.087-3.2-1.519-2.519-2.52-2.252S1826,1339.708,1826.395,1341.212Z" transform="translate(-1373.623 1790.559)" fill="#f7cbba"/>
    <path id="Path_184" data-name="Path 184" d="M1668.263,1569.519c-1.561-8.936-6.792,1.689-7.411,5.171a11.53,11.53,0,0,1-5.011,7.116c.006.026.023.053.03.081a18.841,18.841,0,0,1,.656,3.147c.314.016.515,0,.886,0C1664.131,1585.134,1669.826,1578.455,1668.263,1569.519Z" transform="translate(-1224.775 1591.369)" fill="#ffc1a9"/>
    <path id="Path_185" data-name="Path 185" d="M1691.619,1372.9s-.424-.081-1.128-.211c-2.438,1.534-12.09,5.044-11.137,15.718.663,7.421,8.684,9.394,14.68,7.259C1677.734,1391.333,1688.6,1373.816,1691.619,1372.9Z" transform="translate(-1245.256 1760.239)" fill="#9f5d16"/>
    <path id="Path_186" data-name="Path 186" d="M2192.7,1385.285a1.448,1.448,0,0,1-.175-.013,1.185,1.185,0,0,1-1-1.345l1.086-7.252a1.184,1.184,0,1,1,2.341.349l-1.085,7.25A1.186,1.186,0,0,1,2192.7,1385.285Z" transform="translate(-1692.659 1757.639)" fill="#ffc1a9"/>
    <path id="Path_187" data-name="Path 187" d="M2582.28,1442.316a4.144,4.144,0,0,0,4.7.052c6.844-4.608,7.627-16.975,5.161-23.463a4.138,4.138,0,0,0-7.735,2.941c1.5,3.95.681,11.824-2.05,13.66a4.137,4.137,0,0,0-1.12,5.744A4.094,4.094,0,0,0,2582.28,1442.316Z" transform="translate(-2032.442 1722.203)" fill="#ffc1a9"/>
    <path id="Path_188" data-name="Path 188" d="M2611.692,1416.513a4.137,4.137,0,0,1,5.339,2.4,23.058,23.058,0,0,1,1.276,8.137c-1.811,1.621-3.838,2.412-5.877,1.392a5.374,5.374,0,0,1-2.433-2.931,12.843,12.843,0,0,0-.7-3.657A4.136,4.136,0,0,1,2611.692,1416.513Z" transform="translate(-2057.328 1722.199)" fill="#f49e8e"/>
    <path id="Path_189" data-name="Path 189" d="M2612.135,1342.225c-.324,3.266-5.659,16.653-11.9,13.908s-3.543-20.937-3.543-20.937,17.013-.127,16.229,3.45Z" transform="translate(-2046.054 1792.988)" fill="#ffc1a9"/>
    <path id="Path_190" data-name="Path 190" d="M2589.642,1246.273c.071-.564,3.275-6.591.224-9.439s-6.866-1.4-10.542-.907c-10.936,1.465-4.574-18.809-4.276-16,.93,8.859,22.418-2,20.9,12.276,8.317,5.9-7.235,17.4-7.235,17.4Z" transform="translate(-2025.809 1893.9)" fill="#9f5d16"/>
    <path id="Path_191" data-name="Path 191" d="M2606.125,1236.754a5.119,5.119,0,0,0-2.443-4.476c1.519-14.28-19.969-3.429-20.9-12.276-.044-.419-.225-.318-.461.141-1.049,5.119-1.139,13.09,5.862,12.149,3.67-.494,7.49-1.944,10.542.906,2.531,2.361.76,6.9.043,8.7a17.964,17.964,0,0,1-1.023,3.446l-.174.624S2603.579,1241.53,2606.125,1236.754Z" transform="translate(-2033.55 1893.834)" fill="#e5b077"/>
    <path id="Path_192" data-name="Path 192" d="M2700,1392.393c-.964,1.531-1.231,3.1-.592,3.5s1.932-.515,2.9-2.045,1.228-3.1.594-3.5S2700.966,1390.863,2700,1392.393Z" transform="translate(-2135.971 1744.899)" fill="#ffc1a9"/>
    <path id="Path_193" data-name="Path 193" d="M2394.769,1579.1H2347.5s18.647-25.132,16.131-31.05-1.181-13.1,4.591-13.429,6.96-1.61,7.1-1.958,6.261,3.1,6.261,3.1l8.291,1.241s2.808-4.327,4.436-2.388,16.028,7.6,13.5,18.165S2402.087,1578.554,2394.769,1579.1Z" transform="translate(-1828.901 1620.535)" fill="#61789b"/>
    <path id="Path_194" data-name="Path 194" d="M2193.39,1424.189a25.96,25.96,0,0,1-5.1-.605c-10.132-2.212-23.884-8.765-29.971-17.523-1.826-1.968-3.727.127-2.949,2.168a29.486,29.486,0,0,0,4.375,6.729,80.117,80.117,0,0,0,14.337,14.011c3.445,2.621,10.244,7.048,16.958,9.23A98.668,98.668,0,0,1,2193.39,1424.189Z" transform="translate(-1660.933 1731.779)" fill="#ffc1a9"/>
    <path id="Path_195" data-name="Path 195" d="M2434.713,1548.427c-2.068-.443-3.76.309-5.75.585a21.528,21.528,0,0,1-3.72.059c-1.7,4.068-2.3,9.311-3.313,13.288,6.581,2.563,13.415,3.369,17.253-1.453A7.874,7.874,0,0,0,2434.713,1548.427Z" transform="translate(-1893.912 1606.862)" fill="#61789b"/>
    <path id="Path_196" data-name="Path 196" d="M2427.087,1566.488h0a26.637,26.637,0,0,1-9.447-2.088.591.591,0,0,1-.358-.7c.33-1.3.615-2.735.918-4.251a48.821,48.821,0,0,1,2.423-9.112.592.592,0,0,1,1.091.459,47.724,47.724,0,0,0-2.354,8.891c-.266,1.338-.519,2.611-.8,3.8a24.964,24.964,0,0,0,8.533,1.821.592.592,0,0,1,0,1.183Z" transform="translate(-1889.835 1605.371)"/>
    <path id="Path_197" data-name="Path 197" d="M2564.023,1519.083a12.638,12.638,0,0,0,4.429,1.286c4.3.451,8.272-1.195,10.125-4.2a3.214,3.214,0,0,0-5.472-3.372c-.452.735-2.062,1.374-3.973,1.172a5.057,5.057,0,0,1-4.413-3.142,3.215,3.215,0,1,0-6.056,2.16A10.861,10.861,0,0,0,2564.023,1519.083Z" transform="translate(-2013.177 1641.445)" fill="#61789b"/>
    <path id="Path_198" data-name="Path 198" d="M2567.01,1537.959a13.9,13.9,0,0,1-1.458-.077,13.193,13.193,0,0,1-4.636-1.348,11.525,11.525,0,0,1-5.654-6.419.591.591,0,1,1,1.113-.4,10.221,10.221,0,0,0,5.08,5.762,11.966,11.966,0,0,0,4.221,1.225c4.068.428,7.826-1.111,9.554-3.923a2.617,2.617,0,0,0-.857-3.608.594.594,0,0,1,.623-1.012,3.806,3.806,0,0,1,1.243,5.237C2574.487,1536.255,2570.961,1537.959,2567.01,1537.959Z" transform="translate(-2010.34 1624.52)"/>
    <path id="Path_199" data-name="Path 199" d="M2127.385,1375.653a6.056,6.056,0,1,1-4.706-7.154A6.056,6.056,0,0,1,2127.385,1375.653Z" transform="translate(-1626.172 1764.01)" fill="#ffab00"/>
    <path id="Path_200" data-name="Path 200" d="M2131.838,1380.729a5.3,5.3,0,1,1-4.125-6.261A5.3,5.3,0,0,1,2131.838,1380.729Z" transform="translate(-1631.36 1758.782)" fill="#fdd77a"/>
    <path id="Path_201" data-name="Path 201" d="M2112.712,1369.064c-.7.624-3.433,1.988-4.141,1.139s.366-3.225,1.577-4.228,3.47-1.706,4.176-.853S2113.408,1368.443,2112.712,1369.064Z" transform="translate(-1620.013 1767.183)" fill="#ffc1a9"/>
    <path id="Path_202" data-name="Path 202" d="M2401.062,1696.24c-4.51,11.05-19.616,17.257-39.2,17.755-1.738,2.6-3.3,4.824-4.33,6.261,5.52-.4,14.524-1.069,15.125-1.218.87-.218,21.984-1.266,22.637-2.1s14.954-9.978,14.954-9.978Z" transform="translate(-1837.662 1477.635)" fill="#2b4162"/>
    <path id="Path_203" data-name="Path 203" d="M2161.224,1325.628a.593.593,0,0,1-.594-.591v-2.4a.593.593,0,0,1,1.185,0v2.4A.591.591,0,0,1,2161.224,1325.628Z" transform="translate(-1665.681 1804.479)" fill="#ffab00"/>
    <path id="Path_204" data-name="Path 204" d="M2109.619,1341.051a.588.588,0,0,1-.479-.244l-1.413-1.943a.593.593,0,0,1,.958-.7l1.412,1.944a.592.592,0,0,1-.478.94Z" transform="translate(-1619.374 1790.605)" fill="#ffab00"/>
    <path id="Path_205" data-name="Path 205" d="M2076.936,1383.865a.58.58,0,0,1-.182-.029l-2.286-.742a.592.592,0,0,1,.366-1.125l2.286.742a.591.591,0,0,1-.183,1.154Z" transform="translate(-1590.066 1752.159)" fill="#ffab00"/>
    <path id="Path_206" data-name="Path 206" d="M2073.371,1433.268a.592.592,0,0,1-.183-1.156l2.278-.743a.592.592,0,1,1,.367,1.125l-2.278.744A.577.577,0,0,1,2073.371,1433.268Z" transform="translate(-1588.947 1709.018)" fill="#ffab00"/>
    <path id="Path_207" data-name="Path 207" d="M2104.862,1470.418a.581.581,0,0,1-.348-.113.591.591,0,0,1-.126-.826l1.412-1.943a.592.592,0,1,1,.958.695l-1.413,1.944A.588.588,0,0,1,2104.862,1470.418Z" transform="translate(-1616.456 1677.628)" fill="#ffab00"/>
    <path id="Path_208" data-name="Path 208" d="M2157.078,1485.511a.591.591,0,0,1-.592-.592v-2.4a.592.592,0,1,1,1.183,0v2.4a.591.591,0,0,1-.591.592Z" transform="translate(-1662.06 1664.854)" fill="#ffab00"/>
    <path id="Path_209" data-name="Path 209" d="M2227.717,1437.227a.579.579,0,0,1-.184-.029l-2.285-.744a.592.592,0,1,1,.367-1.125l2.286.744a.591.591,0,0,1-.183,1.154Z" transform="translate(-1721.742 1705.56)" fill="#ffab00"/>
    <path id="Path_210" data-name="Path 210" d="M2226.911,1387.828a.592.592,0,0,1-.183-1.156l2.288-.742a.593.593,0,0,1,.365,1.128l-2.287.74A.621.621,0,0,1,2226.911,1387.828Z" transform="translate(-1723.056 1748.699)" fill="#ffab00"/>
    <path id="Path_211" data-name="Path 211" d="M2202.306,1343.425a.592.592,0,0,1-.477-.94l1.414-1.943a.592.592,0,1,1,.958.7l-1.416,1.943A.59.59,0,0,1,2202.306,1343.425Z" transform="translate(-1701.567 1788.542)" fill="#ffab00"/>
    <path id="Path_212" data-name="Path 212" d="M2420.42,1747.512a2.027,2.027,0,0,1-1.463-.564c-1.945-.046-3.887-.176-5.83-.287a9.4,9.4,0,0,1-2.109,3.635c-8.56,9.189-25.242,9.889-36.94,10.884a1.8,1.8,0,0,0-.925,3.2c.8.608,2.47.54,3.357.647,3.2.38,6.4.71,9.618.856,7.528.342,15.1.236,22.442-1.668,6.751-1.749,13.722-5.531,17.329-11.754a39.818,39.818,0,0,0,2.457-4.95Z" transform="translate(-1850.708 1433.597)" fill="#ffc1a9"/>
    <path id="Path_213" data-name="Path 213" d="M2704.928,1655.142c1.757-3.528,3.265-7.87,2.231-11.432a7.834,7.834,0,0,0-14.211-1.667c-2.1,3.694-.97,7.416-2.628,11.034C2695.2,1653.679,2700.059,1654.461,2704.928,1655.142Z" transform="translate(-2128.335 1528.322)" fill="#61789b"/>
    <path id="Path_214" data-name="Path 214" d="M2700.835,1689.8a.617.617,0,0,1-.083-.006c-1.762-.247-3.521-.506-5.281-.759-3.051-.449-6.209-.916-9.318-1.3a.59.59,0,0,1-.515-.659.582.582,0,0,1,.661-.514c3.122.38,6.286.851,9.345,1.3,1.617.238,3.232.476,4.848.7,2.111-4.36,2.784-7.932,2-10.62a.593.593,0,0,1,1.139-.33c.886,3.06.127,7.052-2.278,11.86A.589.589,0,0,1,2700.835,1689.8Z" transform="translate(-2124.242 1494.253)"/>
    <path id="Path_215" data-name="Path 215" d="M1238.613,1895.043H969.147a1.307,1.307,0,0,1,0-2.614h269.467a1.307,1.307,0,0,1,0,2.613Z" transform="translate(-623.88 1306.275)"/>
    <path id="Path_216" data-name="Path 216" d="M2296.322,1866.981c-1.442-3.8,5.266-6.743,13.064-6.972s4.909,3.465.929,3.96-4.769,2.224-8.859,3.554C2298.619,1868.442,2296.869,1868.41,2296.322,1866.981Z" transform="translate(-1784.029 1334.601)" fill="#ffc1a9"/>
  </g>
</svg>
