<svg xmlns="http://www.w3.org/2000/svg" width="389.525" height="54.916" viewBox="0 0 389.525 54.916">
  <g id="Aangesloten_bij_SchuldhulpMaatje" data-name="Aangesloten bij SchuldhulpMaatje" transform="translate(-764.775 -656.6)">
    <g id="Group_53" data-name="Group 53">
      <g id="Group_51" data-name="Group 51">
        <path id="Path_89" data-name="Path 89" d="M785.7,688.1h0c-.3.7-1.8,4.9-4.4,4.9-1.8,0-2.3-1.7-2.3-3.5,0-3.8,2.1-7.1,5.2-7.1a3.6,3.6,0,0,1,2,.6.446.446,0,0,1,.3-.4h.7c.3,0,.3.2.3.4l-.4,9.5a.366.366,0,0,1-.4.4h-.9a.366.366,0,0,1-.4-.4Zm-4.1,3.6c2.1,0,4.3-6.5,4.5-7.7a2.967,2.967,0,0,0-1.7-.4c-2.3,0-3.8,2.6-3.8,6C780.6,690.5,780.8,691.7,781.6,691.7Z" fill="#fff"/>
        <path id="Path_90" data-name="Path 90" d="M797.6,688.1h0c-.3.7-1.8,4.9-4.4,4.9-1.8,0-2.3-1.7-2.3-3.5,0-3.8,2.1-7.1,5.2-7.1a3.6,3.6,0,0,1,2,.6.446.446,0,0,1,.3-.4h.7c.3,0,.3.2.3.4l-.4,9.5a.366.366,0,0,1-.4.4h-.9a.366.366,0,0,1-.4-.4Zm-4.1,3.6c2.1,0,4.3-6.5,4.5-7.7a2.967,2.967,0,0,0-1.7-.4c-2.3,0-3.8,2.6-3.8,6C792.6,690.5,792.7,691.7,793.5,691.7Z" fill="#fff"/>
        <path id="Path_91" data-name="Path 91" d="M803.9,683c0-.3.1-.4.4-.4h.8c.4,0,.4.2.4.4l-.2,4.3h0c.1-1.1,1.8-4.9,4.4-4.9,1.7,0,1.7,1.5,1.7,2.7l-.4,7.3a.366.366,0,0,1-.4.4h-.9c-.4,0-.4-.2-.4-.4l.4-7.1c0-.8,0-1.4-.6-1.4-1.3,0-4,4.8-4.1,7.4v1.1c0,.2-.1.4-.5.4h-.8a.366.366,0,0,1-.4-.4Z" fill="#fff"/>
        <path id="Path_92" data-name="Path 92" d="M822.9,693.3a4.242,4.242,0,0,1-4.5,3.8c-1.2,0-3.5-.4-3.5-1.1v-.7a.319.319,0,0,1,.3-.3,8.059,8.059,0,0,0,3,.9c1.6,0,2.9-.7,3-2.5l.3-5.2h0c-.3.8-1.7,4.9-4.4,4.9-1.8,0-2.3-1.8-2.3-3.5,0-4,2.4-7.1,5.1-7.1a4.323,4.323,0,0,1,2.1.6c0-.2.1-.4.3-.4h.8c.4,0,.4.2.4.4Zm-5.5-1.6c2,0,4.4-6.5,4.6-7.7a3.885,3.885,0,0,0-1.8-.5c-2.2,0-3.7,2.7-3.7,5.9C816.4,690.5,816.6,691.7,817.4,691.7Z" fill="#fff"/>
        <path id="Path_93" data-name="Path 93" d="M828.4,688.5c0,2.1.8,3.3,2.5,3.3a7.161,7.161,0,0,0,2.6-.6.215.215,0,0,1,.2.2v.7c0,.6-1.9,1-3.2,1-2.1,0-3.7-1.2-3.7-4.3,0-4.1,2.5-6.3,4.9-6.3,1.9,0,2.6.9,2.6,1.9,0,3.2-4.8,3.5-5.9,3.5v.6Zm.1-1.7c.7-.1,4.1-.2,4.1-2.1a1,1,0,0,0-1.1-1.1C829.4,683.5,828.6,686,828.5,686.8Z" fill="#fff"/>
        <path id="Path_94" data-name="Path 94" d="M840.7,687.5A2.747,2.747,0,0,1,842,690a3.213,3.213,0,0,1-3.5,3c-.9,0-2.5-.3-2.5-1v-.7a.319.319,0,0,1,.3-.3,5.457,5.457,0,0,0,2.3.6c1.2,0,1.9-.6,1.9-1.4,0-.7-.5-1.1-1.2-1.6l-1.3-1.1a2.529,2.529,0,0,1-1.3-2.3,3.012,3.012,0,0,1,3.3-2.9c1.1,0,2.2.2,2.2.8v.9a.215.215,0,0,1-.2.2c-.4,0-.6-.6-2.2-.6-.8,0-1.6.5-1.6,1.2,0,.6.4.9.9,1.3Z" fill="#fff"/>
        <path id="Path_95" data-name="Path 95" d="M846.1,678.9c0-.2.2-.3.4-.3h.8c.2,0,.4.1.4.3l-.7,13.6a.366.366,0,0,1-.4.4h-.8a.366.366,0,0,1-.4-.4Z" fill="#fff"/>
        <path id="Path_96" data-name="Path 96" d="M850.7,688.5c0-3.7,1.9-6.1,4.5-6.1,2.5,0,3.7,2,3.7,4.6,0,3.8-2,6-4.5,6C852,693,850.7,691,850.7,688.5Zm3.9,3.3c1.6,0,2.7-1.8,2.7-4.6,0-1.9-.5-3.5-2.2-3.5s-2.7,1.8-2.7,4.7C852.4,690.2,852.9,691.8,854.6,691.8Z" fill="#fff"/>
        <path id="Path_97" data-name="Path 97" d="M867.3,692.2c0,.5-1.3.8-2.4.8a2.321,2.321,0,0,1-2.6-2.6l.3-6.6h-1c-.3,0-.3-.2-.3-.4V683c0-.3.1-.4.4-.4h1l.1-2.4c0-.3.1-.4.5-.4h.8a.366.366,0,0,1,.4.4l-.1,2.4h3a.366.366,0,0,1,.4.4v.4c0,.3-.1.4-.4.4h-3l-.3,6.3c0,1,.3,1.7,1.2,1.7a4.647,4.647,0,0,0,1.9-.4c.1,0,.1.1.1.2v.6Z" fill="#fff"/>
        <path id="Path_98" data-name="Path 98" d="M870.9,688.5c0,2.1.8,3.3,2.5,3.3a7.161,7.161,0,0,0,2.6-.6.215.215,0,0,1,.2.2v.7c0,.6-1.9,1-3.2,1-2.1,0-3.7-1.2-3.7-4.3,0-4.1,2.5-6.3,4.9-6.3,1.9,0,2.6.9,2.6,1.9,0,3.2-4.8,3.5-5.9,3.5v.6Zm.2-1.7c.7-.1,4.1-.2,4.1-2.1a1,1,0,0,0-1.1-1.1C871.9,683.5,871.2,686,871.1,686.8Z" fill="#fff"/>
        <path id="Path_99" data-name="Path 99" d="M880.2,683c0-.3.1-.4.4-.4h.8c.4,0,.4.2.4.4l-.2,4.3h0c.1-1.1,1.8-4.9,4.4-4.9,1.7,0,1.7,1.5,1.7,2.7l-.4,7.3a.366.366,0,0,1-.4.4H886c-.4,0-.4-.2-.4-.4l.4-7.1c0-.8,0-1.4-.6-1.4-1.3,0-4,4.8-4.1,7.4v1.1c0,.2-.1.4-.5.4H880a.366.366,0,0,1-.4-.4Z" fill="#fff"/>
        <path id="Path_100" data-name="Path 100" d="M898.8,678.9c0-.2.2-.3.4-.3h.8c.3,0,.4.1.4.3l-.4,8.4h0c.3-1,1.8-4.9,4.4-4.9,1.8,0,2.3,1.7,2.3,3.3,0,4-2.1,7.3-5.2,7.3a3.675,3.675,0,0,1-2.2-.7l-.6.5c-.1.1-.2.2-.3.2a.319.319,0,0,1-.3-.3Zm2.5,13.1c2.3,0,3.8-2.7,3.8-5.9,0-1.1-.2-2.2-1-2.2-2,0-4.1,5.5-4.4,7.8A9.109,9.109,0,0,0,901.3,692Z" fill="#fff"/>
        <path id="Path_101" data-name="Path 101" d="M910.5,683c0-.3.1-.4.4-.4h.8c.4,0,.4.2.4.4l-.5,9.5a.366.366,0,0,1-.4.4h-.8c-.4,0-.4-.2-.4-.4Zm0-3.4c0-.9.4-1,1-1,.9,0,1,.2,1,1,0,1-.4,1-1.1,1C910.6,680.6,910.5,680.4,910.5,679.6Z" fill="#fff"/>
        <path id="Path_102" data-name="Path 102" d="M917.5,693.9c-.1,2.2-1.2,3.4-3.3,3.4-1,0-1.6-.2-1.6-.7V696c0-.1.1-.3.2-.3.3,0,.5.3,1.4.3a1.633,1.633,0,0,0,1.6-1.8l.6-11.2c0-.3.1-.4.5-.4h.8a.366.366,0,0,1,.4.4Zm-1.1-14.3c0-.9.4-1,1-1,.9,0,1,.2,1,1,0,1-.4,1-1.1,1C916.5,680.6,916.4,680.4,916.4,679.6Z" fill="#fff"/>
        <path id="Path_103" data-name="Path 103" d="M933.1,686.8a3.248,3.248,0,0,1,1.5,2.6,3.693,3.693,0,0,1-4,3.6c-1.2,0-3.1-.3-3.1-1.2v-.6a.319.319,0,0,1,.3-.3,6.617,6.617,0,0,0,2.8.9c1.4,0,2.4-.7,2.4-2a2.227,2.227,0,0,0-1-1.7l-2.4-1.9a3.143,3.143,0,0,1-1.4-2.6c0-2.3,2.1-3.3,3.9-3.3,1.2,0,2.8.5,2.8,1.1v.7a.319.319,0,0,1-.3.3,5.9,5.9,0,0,0-2.6-.9c-1.1,0-2.3.5-2.3,1.7,0,.6.3,1.1,1.1,1.7Z" fill="#fff"/>
        <path id="Path_104" data-name="Path 104" d="M944.1,692.1c0,.5-1.8,1-3.2,1-2.1,0-3.6-1.2-3.6-4.1,0-4.3,2.3-6.5,4.9-6.5,1.2,0,2.3.3,2.3.8v.7a.215.215,0,0,1-.2.2,5.11,5.11,0,0,0-1.8-.4c-2.4,0-3.5,2-3.5,5,0,1.9.8,3.1,2.6,3.1a6.908,6.908,0,0,0,2.4-.6.215.215,0,0,1,.2.2v.6Z" fill="#fff"/>
        <path id="Path_105" data-name="Path 105" d="M948,678.9c0-.2.1-.3.4-.3h.8c.4,0,.4.1.4.3l-.5,8.4h0c.1-1.1,1.8-4.9,4.4-4.9,1.7,0,1.7,1.5,1.7,2.7l-.4,7.3a.366.366,0,0,1-.4.4h-.9c-.4,0-.4-.2-.4-.4l.4-7.1c0-.8,0-1.4-.6-1.4-1.3,0-4,4.8-4.1,7.4v1.1c0,.2-.1.4-.5.4h-.8a.366.366,0,0,1-.4-.4Z" fill="#fff"/>
        <path id="Path_106" data-name="Path 106" d="M965.5,687.8h0c-.3.9-1.8,5.2-4.7,5.2a1.714,1.714,0,0,1-1.6-1.9l.5-8.1a.366.366,0,0,1,.4-.4h.9c.4,0,.4.2.4.4l-.4,7.1c0,.8.1,1.4.6,1.4,1.6,0,4-5.1,4.1-7.4l.1-1.1c0-.3.1-.4.4-.4h.9c.3,0,.3.2.3.4l-.5,9.5a.366.366,0,0,1-.4.4h-.9c-.4,0-.4-.2-.4-.4Z" fill="#fff"/>
        <path id="Path_107" data-name="Path 107" d="M971.9,678.9c0-.2.2-.3.4-.3h.8c.2,0,.4.1.4.3l-.7,13.6a.366.366,0,0,1-.4.4h-.8a.366.366,0,0,1-.4-.4Z" fill="#fff"/>
        <path id="Path_108" data-name="Path 108" d="M983.4,688.1h0c-.3,1-1.9,5-4.5,5-1.7,0-2.3-1.8-2.3-3.5,0-3.9,2.2-7.1,5.2-7.1a3.136,3.136,0,0,1,1.8.5l.2-4c0-.2.1-.3.4-.3h.9c.3,0,.4.1.4.3l-.7,13.6a.43.43,0,0,1-.4.4h-.9c-.4,0-.4-.2-.4-.4Zm-4.2,3.6c2.2,0,4.1-5.7,4.4-7.8a3.157,3.157,0,0,0-1.6-.4c-2.2,0-3.7,2.6-3.7,5.9C978.3,690.5,978.5,691.7,979.2,691.7Z" fill="#fff"/>
        <path id="Path_109" data-name="Path 109" d="M989.7,680.9c0-.3.1-.4.4-.4h.9c.3,0,.4.1.4.4l-.3,4.9H997l.3-4.9c0-.3.1-.4.4-.4h.9c.3,0,.4.1.4.4l-.6,11.5a.366.366,0,0,1-.4.4h-.9a.366.366,0,0,1-.4-.4l.3-5.4h-5.9l-.3,5.4a.366.366,0,0,1-.4.4h-.9a.366.366,0,0,1-.4-.4Z" fill="#fff"/>
        <path id="Path_110" data-name="Path 110" d="M1009.1,687.8h0c-.3.9-1.8,5.2-4.7,5.2a1.714,1.714,0,0,1-1.6-1.9l.5-8.1a.366.366,0,0,1,.4-.4h.9c.4,0,.4.2.4.4l-.4,7.1c0,.8.1,1.4.6,1.4,1.6,0,4-5.1,4.1-7.4l.1-1.1c0-.3.1-.4.4-.4h.9c.3,0,.3.2.3.4l-.5,9.5a.366.366,0,0,1-.4.4h-.9c-.4,0-.4-.2-.4-.4Z" fill="#fff"/>
        <path id="Path_111" data-name="Path 111" d="M1015.5,678.9c0-.2.2-.3.4-.3h.8c.2,0,.4.1.4.3l-.7,13.6a.366.366,0,0,1-.4.4h-.8a.366.366,0,0,1-.4-.4Z" fill="#fff"/>
        <path id="Path_112" data-name="Path 112" d="M1021.2,683c0-.3.1-.4.4-.4h.8c.3,0,.4.1.4.4l-.2,4.4h0c.3-1,1.8-5,4.5-5,1.7,0,2.2,1.7,2.2,3.4,0,4-2.2,7.2-5.2,7.2a2.834,2.834,0,0,1-1.8-.5l-.2,4.2c0,.3-.1.4-.4.4h-.8c-.3,0-.4-.1-.4-.4Zm2.7,9c2.2,0,3.7-2.6,3.7-6,0-1.1-.2-2.2-1-2.2-1.8,0-4.4,5.4-4.4,7.8A4.651,4.651,0,0,0,1023.9,692Z" fill="#fff"/>
        <path id="Path_113" data-name="Path 113" d="M1033.9,680.9c0-.2.2-.3.4-.3h1.7c.2,0,.3.1.4.3l1.7,8.1a15.071,15.071,0,0,1,.4,2.2h0c.2-.4.6-1.6.9-2.5l3.1-7.8c.1-.2.2-.3.4-.3h1.7c.3,0,.3.1.3.3l-.2,11.5c0,.3-.1.4-.4.4h-.9c-.4,0-.4-.2-.4-.4l.2-8.9c0-.5.1-1.3.1-1.7h0c-.4,1.2-.8,2.2-1.1,3l-3,7.7a.536.536,0,0,1-.4.3h-1.2c-.2,0-.3,0-.4-.3l-1.7-8.4a15.875,15.875,0,0,1-.4-2.3h0c-.1.9-.4,2.8-.5,3.4l-1.2,7.4c0,.3-.1.4-.4.4h-.8c-.3,0-.4-.1-.4-.2Z" fill="#fff"/>
        <path id="Path_114" data-name="Path 114" d="M1054.8,688.1h0c-.3.7-1.8,4.9-4.4,4.9-1.8,0-2.3-1.7-2.3-3.5,0-3.8,2.1-7.1,5.2-7.1a3.6,3.6,0,0,1,2,.6.446.446,0,0,1,.3-.4h.7c.3,0,.3.2.3.4l-.4,9.5a.366.366,0,0,1-.4.4h-.9a.366.366,0,0,1-.4-.4Zm-4,3.6c2.1,0,4.3-6.5,4.5-7.7a2.967,2.967,0,0,0-1.7-.4c-2.3,0-3.8,2.6-3.8,6C1049.8,690.5,1050,691.7,1050.8,691.7Z" fill="#fff"/>
        <path id="Path_115" data-name="Path 115" d="M1066.8,688.1h0c-.3.7-1.8,4.9-4.4,4.9-1.8,0-2.3-1.7-2.3-3.5,0-3.8,2.1-7.1,5.2-7.1a3.6,3.6,0,0,1,2,.6.446.446,0,0,1,.3-.4h.7c.3,0,.3.2.3.4l-.4,9.5a.366.366,0,0,1-.4.4h-.9a.366.366,0,0,1-.4-.4Zm-4.1,3.6c2.1,0,4.3-6.5,4.5-7.7a2.967,2.967,0,0,0-1.7-.4c-2.3,0-3.8,2.6-3.8,6C1061.8,690.5,1061.9,691.7,1062.7,691.7Z" fill="#fff"/>
        <path id="Path_116" data-name="Path 116" d="M1077.7,692.2c0,.5-1.3.8-2.4.8a2.321,2.321,0,0,1-2.6-2.6l.3-6.6h-1c-.3,0-.3-.2-.3-.4V683c0-.3.1-.4.4-.4h1l.1-2.4c0-.3.1-.4.5-.4h.8a.366.366,0,0,1,.4.4l-.1,2.4h3c.3,0,.3.2.3.4v.4c0,.3-.1.4-.4.4h-3l-.3,6.3c0,1,.3,1.7,1.2,1.7a4.647,4.647,0,0,0,1.9-.4c.1,0,.1.1.1.2v.6Z" fill="#fff"/>
        <path id="Path_117" data-name="Path 117" d="M1081.7,693.9c-.1,2.2-1.2,3.4-3.3,3.4-1,0-1.6-.2-1.6-.7V696c0-.1.1-.3.2-.3.3,0,.5.3,1.4.3a1.633,1.633,0,0,0,1.6-1.8l.6-11.2c0-.3.1-.4.5-.4h.8a.366.366,0,0,1,.4.4Zm-1.1-14.3c0-.9.3-1,1-1,.9,0,1,.2,1,1,0,1-.4,1-1.1,1C1080.7,680.6,1080.6,680.4,1080.6,679.6Z" fill="#fff"/>
        <path id="Path_118" data-name="Path 118" d="M1087.1,688.5c0,2.1.8,3.3,2.5,3.3a7.16,7.16,0,0,0,2.6-.6.215.215,0,0,1,.2.2v.7c0,.6-1.9,1-3.2,1-2.1,0-3.7-1.2-3.7-4.3,0-4.1,2.5-6.3,4.9-6.3,1.9,0,2.6.9,2.6,1.9,0,3.2-4.8,3.5-5.9,3.5Zm.2-1.7c.7-.1,4.1-.2,4.1-2.1a.959.959,0,0,0-1.1-1.1C1088.1,683.5,1087.4,686,1087.3,686.8Z" fill="#fff"/>
      </g>
      <path id="Path_119" data-name="Path 119" d="M1101.6,666.8H767l-2.1,39.9" fill="none" stroke="#fff" stroke-width="0.25"/>
      <g id="Group_52" data-name="Group 52">
        <path id="Path_120" data-name="Path 120" d="M1114.2,677.5c-.2.7.3.8.9,1.2.8.5,1.6.9,2.1.1,4-5.7,8.9-6,11.9-4.5,1.8.9,3.4,2.8,2.8,4.9-.2.7.2,1.1.7,1.6.6.4,1.2.7,1.7.4,8.8-5.5,11.9-4.5,12.6-4.1s1,1.2,1,2.5c-.1,3.4-2.8,8.6-7.1,13.6a61.488,61.488,0,0,1-19.9,15.2c-.8.4-.7,1.1-.3,1.9s.9,1.5,1.8,1.1a64.35,64.35,0,0,0,20.9-16c4.9-5.7,7.7-11.4,7.9-15.7a6.116,6.116,0,0,0-2.6-5.6c-2.9-1.7-7.4-.8-13.5,2.6a8.541,8.541,0,0,0-4.6-5.5c-4.5-2.2-11.2-1.3-16.1,5.6a1.444,1.444,0,0,1-.2.7" fill="#eb8b00"/>
        <path id="Path_121" data-name="Path 121" d="M1123.7,699.6a66.75,66.75,0,0,0,16.4-20,44.028,44.028,0,0,0-5.1,2.7l-.6.3a62.576,62.576,0,0,1-12.9,14.4c-.7.6-.4,1.3.2,2,.7.8,1.3,1.2,2,.6M1128,663a8.235,8.235,0,0,0-5.8-4.3c-4.8-1.1-11,1.6-14.3,9.1-.3.7-.1,1.1,1.3,1.4,1.1.3,1.6.5,2-.6,1.8-4.7,7.1-7.3,10.2-6.6,2,.4,4,1.9,3.8,4.2,0,.7.4,1,1.1,1.2.6.3,1.3.5,1.8,0,7.3-7.4,10.5-7.2,11.3-6.9.8.2,1.3,1,1.5,2.2.5,2.5-.2,6.4-1.8,10.6a17.257,17.257,0,0,1,4-1.1c1.3-3.9,1.7-7.5,1.1-10.1a5.821,5.821,0,0,0-3.9-4.8c-3-.9-7.2,1-12.3,5.7" fill="#fff"/>
        <path id="Path_122" data-name="Path 122" d="M1148.7,659.4a2.8,2.8,0,1,1,2.8,2.8,2.734,2.734,0,0,1-2.8-2.8m2.8,2.4a2.4,2.4,0,1,0-2.4-2.4,2.433,2.433,0,0,0,2.4,2.4m-1.1-3.9h1c.6,0,1.2.1,1.2,1a.682.682,0,0,1-.5.7l.5,1.3h-.6l-.5-1.2h-.6v1.2h-.5Zm.6,1.3h.6c.2,0,.5-.1.5-.4s-.2-.4-.5-.4h-.6Z" fill="#fff"/>
      </g>
    </g>
  </g>
</svg>
